<svg xmlns="http://www.w3.org/2000/svg" version="1.1" xmlns:xlink="http://www.w3.org/1999/xlink" xmlns:svgjs="http://svgjs.com/svgjs" width="1440" height="720" preserveAspectRatio="none" viewBox="0 0 1440 720"><g mask="url(&quot;#SvgjsMask1159&quot;)" fill="none"><rect width="1440" height="720" x="0" y="0" fill="rgba(63, 60, 167, 1)"></rect><path d="M0,567.38C124.723,570.762,257.785,631.461,366.711,570.614C476.405,509.338,526.664,376.671,558.834,255.211C587.862,145.613,544.015,35.833,538.343,-77.402C531.937,-205.292,593.86,-346.595,523.336,-453.474C452.237,-561.224,310.045,-606.152,181.513,-618.176C63.515,-629.214,-39.122,-553.675,-151.693,-516.62C-259.832,-481.024,-382.129,-480.529,-467.042,-404.694C-556.746,-324.58,-615.042,-209.892,-628.908,-90.423C-642.601,27.555,-589.542,138.702,-542.78,247.879C-494.949,359.554,-458.845,489.441,-354.15,551.069C-250.203,612.256,-120.574,564.111,0,567.38" fill="#2d2b78"></path><path d="M1440 1264.339C1539.8029999999999 1254.136 1618.102 1182.0230000000001 1697.579 1120.801 1770.849 1064.3600000000001 1835.839 1001.7819999999999 1883.633 922.6 1936.311 835.326 1992.266 743.16 1986.97 641.358 1981.487 535.965 1933.649 430.619 1854.41 360.912 1778.6779999999999 294.29 1671.059 284.508 1570.634 275.102 1484.829 267.065 1400.473 280.366 1319.861 310.843 1243.905 339.56 1171.175 379.855 1122.213 444.636 1074.946 507.175 1076.117 589.501 1052.703 664.315 1023.8779999999999 756.42 951.363 840.304 968.671 935.249 986.98 1035.684 1062.489 1118.725 1146.194 1177.17 1231.684 1236.8600000000001 1336.275 1274.943 1440 1264.339" fill="#615ec5"></path></g><defs><mask id="SvgjsMask1159"><rect width="1440" height="720" fill="#ffffff"></rect></mask></defs></svg>